<?xml version="1.0" encoding="UTF-8"?>
<svg id="_레이어_1" data-name="레이어 1" xmlns="http://www.w3.org/2000/svg" viewBox="0 0 120.18 120.1798">
  <defs>
    <style>
      .cls-1 {
        fill: #040000;
      }
    </style>
  </defs>
  <path class="cls-1" d="M74.7042,101.874l3.9025,6.7594,14.1174-8.1507-3.9025-6.7594-7.6978-2.2735c-2.0746-.5981-3.411.1402-4.0196,2.2542l-2.4,8.1699M79.3519,98.6918c.2491-1.0085.8601-1.7936,1.758-2.312.9229-.5328,1.8833-.655,2.9062-.3809,1.0085.2491,1.7936.8601,2.312,1.758.5328.9229.655,1.8833.3809,2.9062s-.8601,1.7936-1.783,2.3264c-.8979.5184-1.8833.655-2.8813.3665-1.0229-.2741-1.7936-.8601-2.3264-1.783-.5184-.8979-.655-1.8833-.3665-2.8813Z"/>
  <path class="cls-1" d="M101.8744,45.4814l6.7594-3.9025-8.1507-14.1174-6.7594,3.9025-2.2735,7.6978c-.5981,2.0746.1546,3.4359,2.2542,4.0196l8.1699,2.4M98.7066,40.8586c-1.0229-.2741-1.7936-.8601-2.3264-1.783-.5184-.8979-.655-1.8833-.3809-2.9062.2635-.9836.8745-1.7686,1.7724-2.2871.9229-.5328,1.8833-.655,2.8918-.4058,1.0229.2741,1.808.885,2.3264,1.783.5328.9229.655,1.8833.3809,2.9062s-.8601,1.7936-1.783,2.3264c-.8979.5184-1.8833.655-2.8813.3665Z"/>
  <path class="cls-1" d="M45.5106,18.361l-3.9025-6.7594-14.1174,8.1507,3.9025,6.7594,7.2523,1.6746c2.0746.5981,3.4359-.1546,4.0196-2.2542l2.8455-7.5711M40.8878,21.5289c-.2741,1.0229-.8601,1.7936-1.783,2.3264-.8979.5184-1.8833.655-2.9062.3809-.9836-.2635-1.7686-.8745-2.2871-1.7724-.5328-.9229-.655-1.8833-.4058-2.8918.2741-1.0229.885-1.808,1.783-2.3264.9229-.5328,1.8833-.655,2.9062-.3809s1.7936.8601,2.3264,1.783c.5184.8979.655,1.8833.3665,2.8813Z"/>
  <path class="cls-1" d="M18.3653,74.7393l-6.7594,3.9025,8.1507,14.1174,6.7594-3.9025,2.2735-7.6978c.5981-2.0746-.1402-3.411-2.2542-4.0196l-8.1699-2.4M21.5475,79.387c1.0085.2491,1.7936.8601,2.312,1.758.5328.9229.655,1.8833.3809,2.9062-.2491,1.0085-.8601,1.7936-1.758,2.312-.9229.5328-1.8833.655-2.9062.3809s-1.7936-.8601-2.3264-1.783c-.5184-.8979-.655-1.8833-.3665-2.8813.2741-1.0229.8601-1.7936,1.783-2.3264.8979-.5184,1.8833-.655,2.8813-.3665Z"/>
  <path class="cls-1" d="M119.5404,62.4857l-4.8524-3.4507-.0638-1.4929,4.6274-3.7359c.4805-.3772.6675-.9175.5502-1.5814-.0779-.6534-.3909-1.1378-.935-1.389l-5.4335-2.3835-.3209-1.4775,3.7521-4.5607c.3837-.4875.4526-1.0594.2854-1.6946-.2458-.6562-.6691-1.0437-1.2554-1.1376l-5.7574-1.3318-.649-1.3546,2.8346-5.2282c.2906-.5336.2952-1.1016-.0504-1.7003-.3456-.5986-.8542-.9036-1.4472-.8938l-5.9451-.1592-.8486-1.2394,1.7253-5.652c.1974-.5796.0879-1.1149-.3575-1.6559-.4808-.4873-.9962-.6886-1.6102-.6002l-5.8257.9691-1.1191-1.0167.6525-5.8973c.0401-.6218-.2086-1.11-.7355-1.5043-.5164-.4335-1.0633-.5168-1.6447-.3141l-5.5491,2.1395-1.261-.8018-.5622-5.9276c-.0741-.5891-.4225-1.0198-1.0348-1.3314-.5873-.326-1.1553-.3307-1.6503.0216l-5.0229,3.1661-1.424-.5081-1.7117-5.7296c-.1633-.5709-.5721-.9334-1.2266-1.0876-.6583-.2186-1.1936-.109-1.6061.3286l-4.3471,4.1061-1.4873-.272-2.767-5.2533c-.2919-.5631-.7468-.8326-1.4184-.8439-.7004-.0612-1.2281.1769-1.5619.6357l-3.4507,4.8523-1.493.0638-3.7358-4.6274c-.4166-.4911-.9424-.6531-1.5814-.5502-.6927.0674-1.1378.3909-1.389.935l-2.4085,5.4478-1.4775.3209-4.5358-3.7665c-.5125-.3692-1.0738-.4775-1.6945-.2854-.6313.2314-1.0332.6298-1.1664,1.2055l-1.303,5.8073-1.3546.649-5.2283-2.8346c-.5336-.2905-1.0728-.2453-1.6714.1003-.5986.3456-.9324.8043-.9226,1.3973l-.1593,5.9451-1.2394.8486-5.6808-1.7752c-.5901-.1581-1.136-.0092-1.6272.4073-.5016.4559-.6886.9962-.6001,1.6102l.969,5.8257-1.0167,1.1191-5.8973-.6525c-.6218-.0401-1.1245.1837-1.5292.7499-.4086.502-.5063,1.0239-.2892,1.6303l2.1146,5.5634-.7768,1.2466-5.9276.5623c-.5891.074-1.0342.3976-1.3314,1.0347-.326.5873-.3451,1.1304.0216,1.6503l3.166,5.0229-.5081,1.4241-5.7296,1.7117c-.5853.1383-.9478.5472-1.1126,1.241-.1937.6439-.0841,1.1793.3536,1.5917l4.0812,4.3615-.2471,1.473-5.2533,2.7669c-.5488.3168-.8182.7717-.8439,1.4185-.0612.7004.1625,1.2031.6357,1.5618l4.8524,3.4507.0638,1.4929-4.6274,3.7358c-.4911.4166-.6675.9175-.5502,1.5814.053.6678.3765,1.1129.935,1.3891l5.4335,2.3835.296,1.4919-3.7271,4.5463c-.3837.4875-.467,1.0345-.2355,1.6658.196.685.6049,1.0475,1.2055,1.1664l5.7574,1.3318.649,1.3546-2.8346,5.2283c-.305.5087-.2703,1.0872.0754,1.6859.3456.5986.8149.893,1.4222.9081l5.9451.1593.8486,1.2394-1.7253,5.652c-.2119.5546-.0879,1.1149.4073,1.6271.4166.4911.9463.7174,1.5604.629l5.8008-.9547,1.144,1.0023-.6525,5.8973c-.0545.5968.1837,1.1245.7355,1.5043.5164.4335,1.0527.5562,1.6447.3141l5.5491-2.1395,1.261.8018.5622,5.9276c.0597.5642.3976,1.0342,1.0348,1.3315.5873.326,1.116.3201,1.6503-.0217l5.0229-3.166,1.3991.5225,1.7366,5.7152c.1384.5852.5472.9478,1.2017,1.1021.6688.1792,1.2042.0696,1.631-.3431l4.3471-4.1061,1.4873.272,2.767,5.2534c.2525.5526.7468.8326,1.4184.8439.686.0363,1.2032-.1625,1.5619-.6357l3.4507-4.8523,1.468-.0494,3.7608,4.613c.4022.4662.9175.6675,1.5565.5646.6783-.0923,1.1379-.3909,1.414-.9494l2.3836-5.4334,1.4775-.321,4.5608,3.7521c.4875.3836,1.0489.4919,1.6945.2853.6562-.2458,1.0188-.6547,1.1376-1.2554l1.3318-5.7574,1.3546-.6491,5.2283,2.8347c.5086.3049,1.1016.2952,1.7002-.0505.5986-.3456.8787-.8398.8938-1.4472l.1593-5.9451,1.2394-.8486,5.652,1.7253c.5547.2119,1.115.088,1.656-.3574.4767-.4415.6636-.9818.6001-1.6102l-.994-5.8114,1.0167-1.1191,5.9222.6381c.5969.0545,1.0851-.1942,1.5043-.7354.4086-.502.5168-1.0633.3142-1.6447l-2.1395-5.549.8017-1.261,5.9276-.5623c.5641-.0597,1.0198-.4225,1.3314-1.0348.326-.5873.3057-1.1409-.0216-1.6503l-3.166-5.0229.5081-1.4241,5.7296-1.7117c.5709-.1633.9334-.5721,1.0877-1.2266.1936-.6439.084-1.1793-.3287-1.6061l-4.1061-4.3472.272-1.4873,5.2533-2.767c.5382-.2775.8326-.7467.8439-1.4184.0363-.686-.1769-1.2281-.6357-1.5618ZM102.8193,71.541c-2.8564,10.6602-8.747,18.9884-17.6321,24.9906.4579.311.8469.7159,1.141,1.2253.5328.9229.655,1.8832.3809,2.9062-.2741,1.0229-.8601,1.7936-1.783,2.3264-.8979.5184-1.8833.655-2.8813.3665-1.0229-.2741-1.7936-.8601-2.3264-1.783-.2929-.5073-.4492-1.0441-.4905-1.5937-9.6872,4.7412-19.8906,5.7026-30.5584,2.8251-10.6454-2.8524-18.9654-8.7307-24.9474-17.6058-.3126.4681-.7218.8655-1.2397,1.1646-.9229.5328-1.8832.655-2.9062.3809-1.0229-.274-1.7936-.86-2.3264-1.783-.5184-.8979-.655-1.8832-.3665-2.8812.2741-1.0229.8601-1.7936,1.783-2.3264.5133-.2963,1.0567-.4522,1.6132-.491-4.7831-9.6906-5.7437-19.8955-2.8734-30.6078,2.8446-10.6161,8.7476-18.9479,17.643-24.9616-.4541-.3138-.843-.7192-1.1375-1.2293-.5328-.9229-.655-1.8833-.4058-2.8918.2741-1.0229.8851-1.8079,1.783-2.3264.9229-.5328,1.8833-.655,2.9062-.3809,1.0229.2741,1.7936.8601,2.3264,1.783.2926.5068.4489,1.043.4905,1.5921,9.6702-4.7362,19.8601-5.6921,30.5441-2.8484,10.6515,2.8541,18.9748,8.7374,24.9865,17.6287.3138-.4542.7193-.8431,1.2294-1.1376.9229-.5328,1.8833-.655,2.8918-.4058,1.0229.274,1.808.885,2.3264,1.783.5328.9229.655,1.8832.3809,2.9062-.274,1.0229-.86,1.7936-1.783,2.3264-.5068.2926-1.043.4489-1.5921.4905,4.736,9.6704,5.6898,19.8615,2.8235,30.5585Z"/>
  <g>
    <path class="cls-1" d="M71.4272,83.3842c-.1387.0703-.2275.1855-.2705.3457s-.0205.3066.0674.4395c.0889.1348.2383.2305.4492.2871.2422.0645.4502.0547.624-.0273.1748-.084.2881-.2227.3408-.418l.1162-.4336-.8115-.2168c-.2061-.0566-.3779-.0488-.5156.0234Z"/>
    <path class="cls-1" d="M39.6198,24.6033l-15.007,56.0071,56.007,15.007,15.007-56.0071-56.0071-15.007ZM37.2431,73.2416l-.1138.4258-1.1592-.3105.0928-.3477c.0596-.2207.0469-.4082-.0396-.5605s-.2378-.2598-.4536-.3184c-.2168-.0566-.4019-.0332-.5576.0723-.1543.1035-.2661.2832-.3335.5352l-.6792,2.5352-1.1592-.3105,1.1387-4.252,1.1211.3008-.2158.8047c.1348-.2559.3276-.4355.5781-.5371.251-.1016.5337-.1094.8481-.0254.4272.1133.7236.3477.8882.7012.165.3535.1797.7832.0444,1.2871ZM41.3969,75.4818c-.1445.541-.4209.9219-.8271,1.1406-.4067.2188-.8936.2539-1.4609.1016-.5713-.1523-.9766-.4277-1.2158-.8223-.2393-.3965-.2871-.8613-.1436-1.3965l.6963-2.5977,1.1582.3105-.6934,2.5898c-.1313.4902.0249.793.4678.9121.2114.0566.3916.0371.542-.0586.1494-.0957.2559-.2617.3193-.498l.6934-2.5898,1.1602.3105-.6963,2.5977ZM46.437,75.308l-1.1357-.3027c.0332-.125.0088-.2324-.0737-.3281-.083-.0918-.2144-.1641-.3945-.2129l-.3628-.0977c-.1802-.0469-.3262-.0508-.4365-.0098-.1113.043-.1821.123-.2139.2422s-.0083.2109.0713.2754c.0786.0664.1982.1309.3574.1953l.8965.3652c.4033.1621.6777.3945.8242.6914.1465.2988.1665.6484.0605,1.043-.1123.418-.3477.7012-.708.8496-.3604.1504-.832.1465-1.4141-.0098l-.3398-.0898c-.3506-.0938-.6416-.2324-.875-.4121-.2324-.1816-.3975-.3906-.4912-.625s-.1064-.4844-.0361-.748l1.1367.3047c-.0391.1445-.0142.2676.0752.3691.0879.1016.2305.1777.4263.2305l.3403.0898c.2109.0566.3848.0645.5195.0234.1353-.041.2207-.127.2568-.2617.0347-.1289.0132-.2344-.0635-.3184-.0771-.0859-.208-.1621-.3936-.2344l-.9419-.377c-.3638-.1465-.6147-.3652-.7524-.6543-.1382-.2871-.1602-.6074-.0664-.957.2305-.8594.897-1.1426,1.9995-.8477l.3628.0977c.5205.1387.9053.3633,1.1528.6738.2485.3086.3218.6543.2192,1.0352ZM51.1176,76.4213l-1.6616-.4453-.4761,1.7773c-.0308.1133-.0264.2148.0137.3027s.1172.1465.2295.1777l1.2754.3418-.2798,1.043-1.3906-.373c-.4326-.1152-.7393-.3301-.9204-.6445-.1816-.3125-.2139-.6875-.0977-1.1191l.4863-1.8164-1.1436-.3066.2793-1.043,1.1436.3066.3213-1.1973,1.1592.3105-.3203,1.1973,1.6611.4453-.2793,1.043ZM52.7661,81.7924l-1.2129-.3262,1.0078-1.4434-.5156-4.4707,1.2061.3223.1904,2.0391c.0132.1543.0234.3281.0298.5215.0054.1953-.0034.375-.0254.541.064-.1543.1431-.3145.2378-.4844.0947-.166.186-.3125.2754-.4395l1.1377-1.6836,1.2139.3262-3.5449,5.0977ZM59.4506,79.9388l-2.4727-.6641.29-1.082,2.4727.6641-.29,1.082ZM64.3598,83.4076l-1.3125-.3516c-.2998-.0801-.5449-.2148-.7383-.4023-.1934-.1855-.3223-.4082-.3877-.6699s-.0576-.541.0215-.8379l.8291-3.0918-1.3525-.3633.2793-1.043,2.5117.6738-1.0977,4.0957c-.04.1484-.0303.2812.0303.3965.0596.1152.1592.1914.2988.2285l1.1973.3203-.2793,1.0449ZM69.2153,82.9369c-.1445.5391-.4199.9199-.8271,1.1387-.4062.2207-.8936.2539-1.46.1016-.5723-.1523-.9775-.4258-1.2168-.8223-.2393-.3945-.2871-.8613-.1436-1.3965l.6963-2.5977,1.1592.3105-.6943,2.5898c-.1309.4902.0254.793.4688.9121.2109.0566.3916.0371.541-.0566.1504-.0957.2559-.2617.3193-.498l.6943-2.5898,1.1592.3105-.6963,2.5977ZM74.1596,82.9681l-.7666,2.8594-1.1201-.3008.1963-.7324c-.1191.2363-.3066.4004-.5645.4863-.2588.084-.5547.082-.8887-.0078-.4229-.1133-.7246-.3242-.9062-.6348-.1816-.3125-.2197-.6641-.1133-1.0625.1143-.4277.3564-.7246.7266-.8887.3701-.168.832-.1758,1.3828-.0273l.834.2227.0732-.2695c.042-.1602.0205-.3008-.0654-.4199-.0879-.1191-.2344-.207-.4395-.2637-.1963-.0527-.3623-.0547-.499-.0098-.1367.0469-.2305.1445-.2803.2891l-1.0977-.293c.1279-.4121.3809-.7012.7617-.8633.3809-.1641.8389-.1738,1.375-.0312.5605.1504.9648.3984,1.21.7402.2451.3398.3057.7441.1816,1.207ZM78.4877,85.4213c-.1445.5391-.4209.9199-.8271,1.1387-.4062.2207-.8936.2539-1.46.1035-.5723-.1543-.9766-.4277-1.2168-.8242-.2393-.3945-.2871-.8594-.1436-1.3965l.6963-2.5957,1.1592.3105-.6943,2.5879c-.1309.4902.0254.7949.4688.9121.21.0566.3916.0371.542-.0566.1494-.0957.2549-.2617.3184-.498l.6943-2.5898,1.1592.3105-.6963,2.5977ZM74.7042,51.8032l2.8928-10.7961,10.7244,2.8736-2.8928,10.7961-10.7244-2.8736Z"/>
  </g>
</svg>